<?xml version="1.0" encoding="UTF-8" standalone="no"?>
<!DOCTYPE svg PUBLIC "-//W3C//DTD SVG 1.1//EN"
 "http://www.w3.org/Graphics/SVG/1.1/DTD/svg11.dtd">
<!-- Generated by graphviz version 2.40.1 (20161225.0304)
 -->
<!-- Title: %3 Pages: 1 -->
<svg width="711pt" height="291pt"
 viewBox="0.00 0.00 710.77 291.00" xmlns="http://www.w3.org/2000/svg" xmlns:xlink="http://www.w3.org/1999/xlink">
<g id="graph0" class="graph" transform="scale(1 1) rotate(0) translate(4 287)">
<title>%3</title>
<polygon fill="#ffffff" stroke="transparent" points="-4,4 -4,-287 706.772,-287 706.772,4 -4,4"/>
<!-- Cuda -->
<g id="node1" class="node">
<title>Cuda</title>
<ellipse fill="none" stroke="#000000" cx="306.772" cy="-265" rx="29.4969" ry="18"/>
<text text-anchor="middle" x="306.772" y="-261.3" font-family="Times,serif" font-size="14.00" fill="#000000">Cuda</text>
</g>
<!-- C -->
<g id="node2" class="node">
<title>C</title>
<ellipse fill="none" stroke="#000000" cx="229.772" cy="-192" rx="27" ry="18"/>
<text text-anchor="middle" x="229.772" y="-188.3" font-family="Times,serif" font-size="14.00" fill="#000000">C</text>
</g>
<!-- Cuda&#45;&gt;C -->
<g id="edge1" class="edge">
<title>Cuda&#45;&gt;C</title>
<path fill="none" stroke="#000000" d="M290.8175,-249.8744C279.8008,-239.4299 264.9813,-225.3803 252.7027,-213.7395"/>
<polygon fill="#000000" stroke="#000000" points="255.1076,-211.1966 245.4425,-206.8565 250.2916,-216.2766 255.1076,-211.1966"/>
</g>
<!-- C++ -->
<g id="node3" class="node">
<title>C++</title>
<ellipse fill="none" stroke="#000000" cx="383.772" cy="-105" rx="27.0966" ry="18"/>
<text text-anchor="middle" x="383.772" y="-101.3" font-family="Times,serif" font-size="14.00" fill="#000000">C++</text>
</g>
<!-- Cuda&#45;&gt;C++ -->
<g id="edge2" class="edge">
<title>Cuda&#45;&gt;C++</title>
<path fill="none" stroke="#000000" d="M318.228,-248.3346C332.0889,-227.5329 355.3553,-190.4833 369.772,-156 372.8747,-148.5784 375.4935,-140.2636 377.5961,-132.536"/>
<polygon fill="#000000" stroke="#000000" points="380.9891,-133.3942 380.0601,-122.8402 374.2048,-131.67 380.9891,-133.3942"/>
</g>
<!-- C&#45;&gt;C++ -->
<g id="edge6" class="edge">
<title>C&#45;&gt;C++</title>
<path fill="none" stroke="#000000" d="M250.0714,-179.8197C261.493,-172.915 275.9854,-164.0679 288.772,-156 299.0932,-149.4876 301.1858,-147.0721 311.772,-141 312.0369,-140.8481 333.4999,-130.1183 352.9211,-120.4134"/>
<polygon fill="#000000" stroke="#000000" points="354.5215,-123.5264 361.9025,-115.9256 351.3926,-117.2646 354.5215,-123.5264"/>
<text text-anchor="middle" x="340.772" y="-144.8" font-family="Times,serif" font-size="14.00" fill="#000000">原生支持</text>
</g>
<!-- Fortran -->
<g id="node5" class="node">
<title>Fortran</title>
<ellipse fill="none" stroke="#000000" cx="188.772" cy="-18" rx="36.2938" ry="18"/>
<text text-anchor="middle" x="188.772" y="-14.3" font-family="Times,serif" font-size="14.00" fill="#000000">Fortran</text>
</g>
<!-- C&#45;&gt;Fortran -->
<g id="edge5" class="edge">
<title>C&#45;&gt;Fortran</title>
<path fill="none" stroke="#000000" d="M203.293,-187.71C149.8415,-178.4523 32.1382,-154.8367 8.772,-123 -30.4436,-69.5683 78.6485,-38.8384 143.8667,-25.6816"/>
<polygon fill="#000000" stroke="#000000" points="144.7823,-29.0691 153.9277,-23.7201 143.4427,-22.1984 144.7823,-29.0691"/>
<text text-anchor="middle" x="51.272" y="-101.3" font-family="Times,serif" font-size="14.00" fill="#000000">bind/混合编程</text>
</g>
<!-- C++&#45;&gt;C -->
<g id="edge7" class="edge">
<title>C++&#45;&gt;C</title>
<path fill="none" stroke="#000000" d="M362.9181,-116.8124C358.0668,-119.1662 352.8365,-121.4019 347.772,-123 321.8473,-131.1806 244.5241,-120.4118 226.772,-141 221.2543,-147.3992 220.2586,-156.0983 221.1836,-164.4994"/>
<polygon fill="#000000" stroke="#000000" points="217.7663,-165.2639 223.0894,-174.4244 224.6407,-163.9438 217.7663,-165.2639"/>
<text text-anchor="middle" x="255.772" y="-144.8" font-family="Times,serif" font-size="14.00" fill="#000000">原生支持</text>
</g>
<!-- C++&#45;&gt;Fortran -->
<g id="edge9" class="edge">
<title>C++&#45;&gt;Fortran</title>
<path fill="none" stroke="#000000" d="M364.4564,-91.8308C342.9551,-77.2029 310.8055,-55.4371 307.772,-54 283.7284,-42.6102 255.2507,-33.8426 232.1827,-27.8127"/>
<polygon fill="#000000" stroke="#000000" points="232.8824,-24.3794 222.329,-25.3159 231.163,-31.165 232.8824,-24.3794"/>
<text text-anchor="middle" x="372.272" y="-57.8" font-family="Times,serif" font-size="14.00" fill="#000000">bind/混合编程</text>
</g>
<!-- Python -->
<g id="node6" class="node">
<title>Python</title>
<ellipse fill="none" stroke="#000000" cx="467.772" cy="-18" rx="35.9954" ry="18"/>
<text text-anchor="middle" x="467.772" y="-14.3" font-family="Times,serif" font-size="14.00" fill="#000000">Python</text>
</g>
<!-- C++&#45;&gt;Python -->
<g id="edge10" class="edge">
<title>C++&#45;&gt;Python</title>
<path fill="none" stroke="#000000" d="M409.6181,-98.3905C434.0331,-91.5623 468.0368,-80.3331 475.772,-69 480.3902,-62.2336 480.6906,-53.7972 479.1678,-45.7461"/>
<polygon fill="#000000" stroke="#000000" points="482.487,-44.6165 476.4516,-35.9087 475.7394,-46.4796 482.487,-44.6165"/>
<text text-anchor="middle" x="591.272" y="-57.8" font-family="Times,serif" font-size="14.00" fill="#000000">Boost.Numpy/Boost.Python+DataFrame</text>
</g>
<!-- BLAS/LAPACK -->
<g id="node4" class="node">
<title>BLAS/LAPACK</title>
<ellipse fill="none" stroke="#000000" cx="267.772" cy="-105" rx="70.6878" ry="18"/>
<text text-anchor="middle" x="267.772" y="-101.3" font-family="Times,serif" font-size="14.00" fill="#000000">BLAS/LAPACK</text>
</g>
<!-- BLAS/LAPACK&#45;&gt;Fortran -->
<g id="edge3" class="edge">
<title>BLAS/LAPACK&#45;&gt;Fortran</title>
<path fill="none" stroke="#000000" d="M228.5845,-89.8073C218.9936,-84.4827 209.5505,-77.6186 202.772,-69 197.5836,-62.4032 194.3154,-54.0154 192.2577,-45.9565"/>
<polygon fill="#000000" stroke="#000000" points="195.6722,-45.1834 190.2452,-36.084 188.8133,-46.5816 195.6722,-45.1834"/>
</g>
<!-- Fortran&#45;&gt;C -->
<g id="edge4" class="edge">
<title>Fortran&#45;&gt;C</title>
<path fill="none" stroke="#000000" d="M163.7147,-31.2633C131.2845,-50.2697 81.332,-86.9515 102.772,-123 122.4205,-156.0364 164.0271,-174.2421 194.2784,-183.537"/>
<polygon fill="#000000" stroke="#000000" points="193.4759,-186.9481 204.0541,-186.3561 195.4155,-180.2222 193.4759,-186.9481"/>
<text text-anchor="middle" x="145.272" y="-101.3" font-family="Times,serif" font-size="14.00" fill="#000000">bind/混合编程</text>
</g>
<!-- Fortran&#45;&gt;C++ -->
<g id="edge8" class="edge">
<title>Fortran&#45;&gt;C++</title>
<path fill="none" stroke="#000000" d="M196.1124,-36.0216C201.7019,-47.3661 210.5326,-61.2769 222.772,-69 270.2404,-98.9528 294.2058,-70.2343 347.772,-87 349.6725,-87.5949 351.5961,-88.2804 353.514,-89.029"/>
<polygon fill="#000000" stroke="#000000" points="352.3609,-92.3454 362.9236,-93.1701 355.1806,-85.9384 352.3609,-92.3454"/>
<text text-anchor="middle" x="265.272" y="-57.8" font-family="Times,serif" font-size="14.00" fill="#000000">bind/混合编程</text>
</g>
<!-- Python&#45;&gt;C++ -->
<g id="edge11" class="edge">
<title>Python&#45;&gt;C++</title>
<path fill="none" stroke="#000000" d="M452.0292,-34.305C439.0368,-47.7614 420.4469,-67.0152 405.9475,-82.0324"/>
<polygon fill="#000000" stroke="#000000" points="403.2175,-79.821 398.7895,-89.4461 408.2534,-84.6832 403.2175,-79.821"/>
<text text-anchor="middle" x="449.272" y="-57.8" font-family="Times,serif" font-size="14.00" fill="#000000">PyRun</text>
</g>
</g>
</svg>
